  0
SECTION
  2
HEADER
  9
$ACADVER
  1
AC1009
  9
$INSBASE
 10
0.0
 20
0.0
 30
0.0
  9
$EXTMIN
 10
0.0
 20
0.0
 30
0.0
  9
$EXTMAX
 10
0.0
 20
0.0
 30
0.0
  0
ENDSEC
  0
SECTION
  2
TABLES
  0
TABLE
  2
VPORT
 70
0
  0
ENDTAB
  0
TABLE
  2
LTYPE
 70
1
  0
LTYPE
  2
CONTINUOUS
 70
0
  3
Solid line
 72
65
 73
0
 40
0.0
  0
ENDTAB
  0
TABLE
  2
LAYER
 70
1
  0
LAYER
  2
0
 70
64
 62
7
  6
continuous
  0
ENDTAB
  0
TABLE
  2
STYLE
 70
1
  0
STYLE
  2
STANDARD
 70
0
 40
0
 41
1.0
 50
0.0
 71
0
 42
1
 3
ARIAL.TTF
 4

  0
ENDTAB
  0
TABLE
  2
VIEW
 70
0
  0
ENDTAB
  0
ENDSEC
  0
SECTION
  2
BLOCKS
  0
BLOCK
  8
0
  2
BODY
 70
0
 10
0.0
 20
0.0
 30
0.0
  3
BODY
  0
ARC
  8
0
 62
0
 10
10.0
 20
490.0
 30
0.0
 40
10.0
 50
90.0
 51
-180.0
  0
LINE
  8
0
 62
0
 10
2.132e-14
 20
490.0
 30
0.0
 11
2.132e-14
 21
10.0
 31
0.0
  0
ARC
  8
0
 62
0
 10
10.0
 20
10.0
 30
0.0
 40
10.0
 50
180.0
 51
-90.0
  0
LINE
  8
0
 62
0
 10
10.0
 20
0.0
 30
0.0
 11
170.0
 21
-3.504e-13
 31
0.0
  0
ARC
  8
0
 62
0
 10
170.0
 20
10.0
 30
0.0
 40
10.0
 50
-90.0
 51
-0.0
  0
LINE
  8
0
 62
0
 10
180.0
 20
10.0
 30
0.0
 11
180.0
 21
490.0
 31
0.0
  0
ARC
  8
0
 62
0
 10
170.0
 20
490.0
 30
0.0
 40
10.0
 50
-0.0
 51
90.0
  0
LINE
  8
0
 62
0
 10
10.0
 20
500.0
 30
0.0
 11
170.0
 21
500.0
 31
0.0
  0
ARC
  8
0
 62
0
 10
65.0
 20
175.0
 30
0.0
 40
5.0
 50
-180.0
 51
-90.0
  0
LINE
  8
0
 62
0
 10
65.0
 20
170.0
 30
0.0
 11
115.0
 21
170.0
 31
0.0
  0
ARC
  8
0
 62
0
 10
115.0
 20
175.0
 30
0.0
 40
5.0
 50
-90.0
 51
-0.0
  0
LINE
  8
0
 62
0
 10
120.0
 20
287.0
 30
0.0
 11
120.0
 21
175.0
 31
0.0
  0
ARC
  8
0
 62
0
 10
115.0
 20
287.0
 30
0.0
 40
5.0
 50
-0.0
 51
90.0
  0
LINE
  8
0
 62
0
 10
65.0
 20
292.0
 30
0.0
 11
115.0
 21
292.0
 31
0.0
  0
ARC
  8
0
 62
0
 10
65.0
 20
287.0
 30
0.0
 40
5.0
 50
90.0
 51
-180.0
  0
LINE
  8
0
 62
0
 10
60.0
 20
175.0
 30
0.0
 11
60.0
 21
287.0
 31
0.0
  0
CIRCLE
  8
0
 62
0
 10
75.0
 20
318.0
 30
0.0
 40
4.3
  0
CIRCLE
  8
0
 62
0
 10
105.0
 20
318.0
 30
0.0
 40
4.3
  0
CIRCLE
  8
0
 62
0
 10
105.0
 20
299.0
 30
0.0
 40
4.3
  0
CIRCLE
  8
0
 62
0
 10
75.0
 20
299.0
 30
0.0
 40
4.3
  0
CIRCLE
  8
0
 62
0
 10
160.0
 20
240.0
 30
0.0
 40
3.3
  0
CIRCLE
  8
0
 62
0
 10
160.0
 20
185.0
 30
0.0
 40
3.3
  0
CIRCLE
  8
0
 62
0
 10
160.0
 20
130.0
 30
0.0
 40
3.3
  0
CIRCLE
  8
0
 62
0
 10
160.0
 20
20.0
 30
0.0
 40
3.3
  0
CIRCLE
  8
0
 62
0
 10
20.0
 20
240.0
 30
0.0
 40
3.3
  0
CIRCLE
  8
0
 62
0
 10
20.0
 20
185.0
 30
0.0
 40
3.3
  0
CIRCLE
  8
0
 62
0
 10
160.0
 20
75.0
 30
0.0
 40
3.3
  0
CIRCLE
  8
0
 62
0
 10
20.0
 20
130.0
 30
0.0
 40
3.3
  0
CIRCLE
  8
0
 62
0
 10
20.0
 20
20.0
 30
0.0
 40
3.3
  0
CIRCLE
  8
0
 62
0
 10
20.0
 20
75.0
 30
0.0
 40
3.3
  0
CIRCLE
  8
0
 62
0
 10
160.0
 20
315.0
 30
0.0
 40
3.3
  0
CIRCLE
  8
0
 62
0
 10
160.0
 20
480.0
 30
0.0
 40
3.3
  0
CIRCLE
  8
0
 62
0
 10
160.0
 20
425.0
 30
0.0
 40
3.3
  0
CIRCLE
  8
0
 62
0
 10
160.0
 20
370.0
 30
0.0
 40
3.3
  0
CIRCLE
  8
0
 62
0
 10
20.0
 20
315.0
 30
0.0
 40
3.3
  0
CIRCLE
  8
0
 62
0
 10
20.0
 20
370.0
 30
0.0
 40
3.3
  0
CIRCLE
  8
0
 62
0
 10
20.0
 20
425.0
 30
0.0
 40
3.3
  0
CIRCLE
  8
0
 62
0
 10
20.0
 20
480.0
 30
0.0
 40
3.3
  0
ENDBLK
  0
ENDSEC
  0
SECTION
  2
ENTITIES
  0
INSERT
  2
BODY
  8
0
 62
0
 10
0.0
 20
0.0
 30
0.0
  0
ENDSEC
  0
EOF
