  0
SECTION
  2
HEADER
  9
$ACADVER
  1
AC1009
  9
$INSBASE
 10
0.0
 20
0.0
 30
0.0
  9
$EXTMIN
 10
0.0
 20
0.0
 30
0.0
  9
$EXTMAX
 10
0.0
 20
0.0
 30
0.0
  0
ENDSEC
  0
SECTION
  2
TABLES
  0
TABLE
  2
VPORT
 70
0
  0
ENDTAB
  0
TABLE
  2
LTYPE
 70
1
  0
LTYPE
  2
CONTINUOUS
 70
0
  3
Solid line
 72
65
 73
0
 40
0.0
  0
ENDTAB
  0
TABLE
  2
LAYER
 70
1
  0
LAYER
  2
0
 70
64
 62
7
  6
continuous
  0
ENDTAB
  0
TABLE
  2
STYLE
 70
1
  0
STYLE
  2
STANDARD
 70
0
 40
0
 41
1.0
 50
0.0
 71
0
 42
1
 3
ARIAL.TTF
 4

  0
ENDTAB
  0
TABLE
  2
VIEW
 70
0
  0
ENDTAB
  0
ENDSEC
  0
SECTION
  2
BLOCKS
  0
BLOCK
  8
0
  2
BODY
 70
0
 10
0.0
 20
0.0
 30
0.0
  3
BODY
  0
LINE
  8
0
 62
0
 10
155.410744092
 20
284.448755853
 30
0.0
 11
9.58925590838
 21
17.5512441475
 31
0.0
  0
ARC
  8
0
 62
0
 10
20.0
 20
11.8632548259
 30
0.0
 40
11.8632548259
 50
151.349677785
 51
-90.0
  0
LINE
  8
0
 62
0
 10
20.0
 20
0.0
 30
0.0
 11
50.0
 21
0.0
 31
0.0
  0
ARC
  8
0
 62
0
 10
50.0
 20
33.7175594616
 30
0.0
 40
33.7175594616
 50
-90.0
 51
-28.6503222149
  0
LINE
  8
0
 62
0
 10
79.5892559084
 20
17.5512441475
 30
0.0
 11
235.0
 21
302.0
 31
0.0
  0
LINE
  8
0
 62
0
 10
235.0
 20
302.0
 30
0.0
 11
285.0
 21
302.0
 31
0.0
  0
LINE
  8
0
 62
0
 10
285.0
 20
302.0
 30
0.0
 11
440.410744092
 21
17.5512441475
 31
0.0
  0
ARC
  8
0
 62
0
 10
470.0
 20
33.7175594616
 30
0.0
 40
33.7175594616
 50
-151.349677785
 51
-90.0
  0
LINE
  8
0
 62
0
 10
470.0
 20
0.0
 30
0.0
 11
500.0
 21
0.0
 31
0.0
  0
ARC
  8
0
 62
0
 10
500.0
 20
11.8632548259
 30
0.0
 40
11.8632548259
 50
-90.0
 51
28.6503222148
  0
LINE
  8
0
 62
0
 10
510.410744092
 20
17.5512441475
 30
0.0
 11
364.589255908
 21
284.448755853
 31
0.0
  0
ARC
  8
0
 62
0
 10
482.118380996
 20
348.661688434
 30
0.0
 40
133.9268306
 50
-168.336705965
 51
-151.349677785
  0
LINE
  8
0
 62
0
 10
350.956801509
 20
321.587050466
 30
0.0
 11
315.053998113
 21
495.516186917
 31
0.0
  0
ARC
  8
0
 62
0
 10
285.0
 20
489.312379967
 30
0.0
 40
30.6876200327
 50
11.6632940349
 51
90.0
  0
LINE
  8
0
 62
0
 10
235.0
 20
520.0
 30
0.0
 11
285.0
 21
520.0
 31
0.0
  0
ARC
  8
0
 62
0
 10
235.0
 20
489.312379967
 30
0.0
 40
30.6876200327
 50
90.0
 51
168.336705965
  0
LINE
  8
0
 62
0
 10
204.946001887
 20
495.516186917
 30
0.0
 11
169.043198491
 21
321.587050466
 31
0.0
  0
ARC
  8
0
 62
0
 10
37.8816190037
 20
348.661688434
 30
0.0
 40
133.9268306
 50
-28.6503222148
 51
-11.6632940349
  0
CIRCLE
  8
0
 62
0
 10
295.0
 20
495.0
 30
0.0
 40
4.3
  0
CIRCLE
  8
0
 62
0
 10
225.0
 20
495.0
 30
0.0
 40
4.3
  0
CIRCLE
  8
0
 62
0
 10
245.0
 20
309.0
 30
0.0
 40
4.3
  0
CIRCLE
  8
0
 62
0
 10
275.0
 20
309.0
 30
0.0
 40
4.3
  0
CIRCLE
  8
0
 62
0
 10
275.0
 20
328.0
 30
0.0
 40
4.3
  0
CIRCLE
  8
0
 62
0
 10
245.0
 20
328.0
 30
0.0
 40
4.3
  0
CIRCLE
  8
0
 62
0
 10
70.0
 20
25.0
 30
0.0
 40
4.3
  0
CIRCLE
  8
0
 62
0
 10
450.0
 20
25.0
 30
0.0
 40
4.3
  0
CIRCLE
  8
0
 62
0
 10
490.0
 20
25.0
 30
0.0
 40
4.3
  0
CIRCLE
  8
0
 62
0
 10
30.0
 20
25.0
 30
0.0
 40
4.3
  0
ENDBLK
  0
ENDSEC
  0
SECTION
  2
ENTITIES
  0
INSERT
  2
BODY
  8
0
 62
0
 10
0.0
 20
0.0
 30
0.0
  0
ENDSEC
  0
EOF
